<mxfile host="Electron" modified="2023-11-25T18:02:52.397Z" agent="Mozilla/5.0 (Windows NT 10.0; Win64; x64) AppleWebKit/537.36 (KHTML, like Gecko) draw.io/22.0.3 Chrome/114.0.5735.289 Electron/25.8.4 Safari/537.36" etag="CEoL7QdDt2ssMUEkPjMg" version="22.0.3" type="device">
  <diagram name="Page-1" id="WBJO4BTagzBnhf8cgV79">
    <mxGraphModel dx="819" dy="482" grid="1" gridSize="10" guides="1" tooltips="1" connect="1" arrows="1" fold="1" page="1" pageScale="1" pageWidth="827" pageHeight="1169" math="0" shadow="0">
      <root>
        <mxCell id="0" />
        <mxCell id="1" parent="0" />
        <mxCell id="vnyR9TYAPVQ3703ua_SD-1" value="" style="endArrow=classic;html=1;rounded=0;" edge="1" parent="1">
          <mxGeometry width="50" height="50" relative="1" as="geometry">
            <mxPoint x="120" y="360" as="sourcePoint" />
            <mxPoint x="640" y="360" as="targetPoint" />
          </mxGeometry>
        </mxCell>
        <mxCell id="vnyR9TYAPVQ3703ua_SD-2" value="" style="endArrow=classic;html=1;rounded=0;dashed=1;" edge="1" parent="1">
          <mxGeometry width="50" height="50" relative="1" as="geometry">
            <mxPoint x="120" y="280" as="sourcePoint" />
            <mxPoint x="640" y="280" as="targetPoint" />
          </mxGeometry>
        </mxCell>
        <mxCell id="vnyR9TYAPVQ3703ua_SD-3" value="" style="endArrow=classic;html=1;rounded=0;dashed=1;" edge="1" parent="1">
          <mxGeometry width="50" height="50" relative="1" as="geometry">
            <mxPoint x="120" y="200" as="sourcePoint" />
            <mxPoint x="640" y="200" as="targetPoint" />
          </mxGeometry>
        </mxCell>
        <mxCell id="vnyR9TYAPVQ3703ua_SD-4" value="" style="endArrow=classic;html=1;rounded=0;dashed=1;" edge="1" parent="1">
          <mxGeometry width="50" height="50" relative="1" as="geometry">
            <mxPoint x="120" y="120" as="sourcePoint" />
            <mxPoint x="640" y="120" as="targetPoint" />
          </mxGeometry>
        </mxCell>
        <mxCell id="vnyR9TYAPVQ3703ua_SD-5" value="temps" style="text;html=1;strokeColor=none;fillColor=none;align=center;verticalAlign=middle;whiteSpace=wrap;rounded=0;" vertex="1" parent="1">
          <mxGeometry x="40" y="345" width="60" height="30" as="geometry" />
        </mxCell>
        <mxCell id="vnyR9TYAPVQ3703ua_SD-6" value="clic" style="text;html=1;align=center;verticalAlign=middle;resizable=0;points=[];autosize=1;strokeColor=none;fillColor=none;" vertex="1" parent="1">
          <mxGeometry x="50" y="266" width="40" height="30" as="geometry" />
        </mxCell>
        <mxCell id="vnyR9TYAPVQ3703ua_SD-8" value="parole" style="text;html=1;align=center;verticalAlign=middle;resizable=0;points=[];autosize=1;strokeColor=none;fillColor=none;" vertex="1" parent="1">
          <mxGeometry x="40" y="184" width="60" height="30" as="geometry" />
        </mxCell>
        <mxCell id="vnyR9TYAPVQ3703ua_SD-9" value="geste" style="text;html=1;align=center;verticalAlign=middle;resizable=0;points=[];autosize=1;strokeColor=none;fillColor=none;" vertex="1" parent="1">
          <mxGeometry x="45" y="105" width="50" height="30" as="geometry" />
        </mxCell>
        <mxCell id="vnyR9TYAPVQ3703ua_SD-10" value="" style="endArrow=none;html=1;rounded=0;" edge="1" parent="1">
          <mxGeometry width="50" height="50" relative="1" as="geometry">
            <mxPoint x="190" y="209" as="sourcePoint" />
            <mxPoint x="190" y="189" as="targetPoint" />
          </mxGeometry>
        </mxCell>
        <mxCell id="vnyR9TYAPVQ3703ua_SD-11" value="Déplacer triangle vert ici" style="text;html=1;strokeColor=none;fillColor=none;align=center;verticalAlign=middle;whiteSpace=wrap;rounded=0;" vertex="1" parent="1">
          <mxGeometry x="130" y="164" width="140" height="30" as="geometry" />
        </mxCell>
        <mxCell id="vnyR9TYAPVQ3703ua_SD-12" value="" style="endArrow=none;html=1;rounded=0;" edge="1" parent="1">
          <mxGeometry width="50" height="50" relative="1" as="geometry">
            <mxPoint x="159.82999999999998" y="291" as="sourcePoint" />
            <mxPoint x="159.82999999999998" y="271" as="targetPoint" />
          </mxGeometry>
        </mxCell>
        <mxCell id="vnyR9TYAPVQ3703ua_SD-15" value="" style="endArrow=none;dashed=1;html=1;dashPattern=1 3;strokeWidth=2;rounded=0;fillColor=#f8cecc;strokeColor=#b85450;" edge="1" parent="1">
          <mxGeometry width="50" height="50" relative="1" as="geometry">
            <mxPoint x="159.76" y="360" as="sourcePoint" />
            <mxPoint x="160" y="290" as="targetPoint" />
          </mxGeometry>
        </mxCell>
        <mxCell id="vnyR9TYAPVQ3703ua_SD-16" value="&lt;font color=&quot;#ff3333&quot;&gt;début timer&lt;/font&gt;" style="text;html=1;align=center;verticalAlign=middle;resizable=0;points=[];autosize=1;strokeColor=none;fillColor=none;" vertex="1" parent="1">
          <mxGeometry x="120" y="360" width="80" height="30" as="geometry" />
        </mxCell>
        <mxCell id="vnyR9TYAPVQ3703ua_SD-18" value="&lt;font color=&quot;#ff3333&quot;&gt;fin timer&lt;/font&gt;" style="text;html=1;align=center;verticalAlign=middle;resizable=0;points=[];autosize=1;strokeColor=none;fillColor=none;" vertex="1" parent="1">
          <mxGeometry x="325" y="360" width="70" height="30" as="geometry" />
        </mxCell>
        <mxCell id="vnyR9TYAPVQ3703ua_SD-20" value="" style="endArrow=baseDash;html=1;rounded=0;startArrow=baseDash;startFill=0;endFill=0;fillColor=#f8cecc;strokeColor=#b85450;" edge="1" parent="1">
          <mxGeometry width="50" height="50" relative="1" as="geometry">
            <mxPoint x="160" y="340" as="sourcePoint" />
            <mxPoint x="480" y="340" as="targetPoint" />
          </mxGeometry>
        </mxCell>
        <mxCell id="vnyR9TYAPVQ3703ua_SD-21" value="" style="endArrow=none;dashed=1;html=1;dashPattern=1 3;strokeWidth=2;rounded=0;fillColor=#f8cecc;strokeColor=#b85450;" edge="1" parent="1">
          <mxGeometry width="50" height="50" relative="1" as="geometry">
            <mxPoint x="480" y="360" as="sourcePoint" />
            <mxPoint x="480" y="340" as="targetPoint" />
          </mxGeometry>
        </mxCell>
        <mxCell id="vnyR9TYAPVQ3703ua_SD-22" value="&lt;font color=&quot;#ff3333&quot;&gt;timeout&lt;/font&gt;" style="text;html=1;align=center;verticalAlign=middle;resizable=0;points=[];autosize=1;strokeColor=none;fillColor=none;" vertex="1" parent="1">
          <mxGeometry x="445" y="360" width="60" height="30" as="geometry" />
        </mxCell>
        <mxCell id="vnyR9TYAPVQ3703ua_SD-23" value="" style="endArrow=none;html=1;rounded=0;" edge="1" parent="1">
          <mxGeometry width="50" height="50" relative="1" as="geometry">
            <mxPoint x="359.76" y="291" as="sourcePoint" />
            <mxPoint x="359.76" y="271" as="targetPoint" />
          </mxGeometry>
        </mxCell>
        <mxCell id="vnyR9TYAPVQ3703ua_SD-24" value="" style="endArrow=none;dashed=1;html=1;dashPattern=1 3;strokeWidth=2;rounded=0;fillColor=#f8cecc;strokeColor=#b85450;" edge="1" parent="1">
          <mxGeometry width="50" height="50" relative="1" as="geometry">
            <mxPoint x="359.76" y="360" as="sourcePoint" />
            <mxPoint x="360" y="290" as="targetPoint" />
          </mxGeometry>
        </mxCell>
      </root>
    </mxGraphModel>
  </diagram>
</mxfile>
